REM DIRINDEX 1\3,1\2\4,1\2\5
REM DIRNAME folder01,folder02,folder03,folder04,folder05
TITLE ""
FILE "I-2-081.mp3" MP3
  TRACK 01 AUDIO
    TITLE "0:"
    INDEX 01 00:00:00
  TRACK 02 AUDIO
    TITLE "4:cjc101_0635"
    INDEX 01 00:00:03
  TRACK 03 AUDIO
    TITLE "0:"
    INDEX 01 00:01:44
  TRACK 04 AUDIO
    TITLE "5:cjc101_0636"
    INDEX 01 00:02:00
  TRACK 05 AUDIO
    TITLE "0:"
    INDEX 01 00:12:11
